<svg width="49" height="41" viewBox="0 0 49 41" fill="none" xmlns="http://www.w3.org/2000/svg">
<path d="M18.2692 24.25H39.2983L32.3142 15.0767L26.9666 21.9134L23.4357 17.5433L18.2692 24.25ZM4.94244 40.8651C3.82044 40.8651 2.86194 40.4678 2.06694 39.6732C1.27231 38.8786 0.875 37.9202 0.875 36.7982V9.71162H4.25V36.7982C4.25 37 4.31488 37.1657 4.44463 37.2955C4.57438 37.4252 4.74031 37.4901 4.94244 37.4901H41.375V40.8651H4.94244ZM12.8174 32.9901C11.6951 32.9901 10.7366 32.5928 9.94194 31.7982C9.14731 31.0036 8.75 30.0452 8.75 28.9232V4.69244C8.75 3.57044 9.14731 2.61194 9.94194 1.81694C10.7366 1.02231 11.6951 0.625 12.8174 0.625H24.0241L28.5241 5.125H44.0576C45.1796 5.125 46.1381 5.52231 46.9331 6.31694C47.7277 7.11194 48.125 8.07044 48.125 9.19244V28.9232C48.125 30.0452 47.7277 31.0036 46.9331 31.7982C46.1381 32.5928 45.1796 32.9901 44.0576 32.9901H12.8174ZM12.8174 29.6157H44.0576C44.2597 29.6157 44.4256 29.5506 44.5554 29.4205C44.6851 29.2907 44.75 29.125 44.75 28.9232V9.19244C44.75 8.99031 44.6851 8.82438 44.5554 8.69463C44.4256 8.56488 44.2597 8.5 44.0576 8.5H27.1438L22.6438 4H12.8174C12.6153 4 12.4494 4.06488 12.3196 4.19463C12.1899 4.32438 12.125 4.49031 12.125 4.69244V28.9232C12.125 29.125 12.1899 29.2907 12.3196 29.4205C12.4494 29.5506 12.6153 29.6157 12.8174 29.6157Z" fill="#2456F7"/>
</svg>
