<svg width="129" height="33" viewBox="0 0 129 33" fill="none" xmlns="http://www.w3.org/2000/svg">
<path d="M24.0412 22.9436C24.0412 29.3984 18.647 32.453 11.9423 32.453C1.6207 32.4512 0 26.0842 0 21.8962H5.08244C5.05143 26.0394 7.73301 27.7404 11.9113 27.7404C16.775 27.7404 19.1138 26.1272 19.1138 23.0296C19.1138 14.6106 0.310104 23.8156 0.310104 10.163C0.311736 4.31879 4.552 0.87207 12.3487 0.87207C18.9898 0.87207 23.8241 3.88191 23.7311 11.7762H18.9604C18.9604 7.23911 16.3408 5.45218 12.3503 5.45218C8.11003 5.45218 5.39581 6.93472 5.39581 10.5122C5.39581 18.1898 24.0429 10.2507 24.0429 22.9436H24.0412Z" fill="black"/>
<path d="M34.2387 16.8359C38.3239 16.8359 41.4103 19.4088 43.5304 21.3712C43.5614 20.587 43.5304 18.8412 43.5304 18.1429C43.5304 13.7813 42.0028 11.9926 37.9796 11.9926H28.8739L28.8429 7.28174H39.6329C45.5575 7.28174 48.2081 10.7285 48.2081 18.7535V26.997H51.2945V31.8815H45.8056V31.8385L45.2132 31.8815C44.2159 31.8815 43.7785 30.3542 43.7785 29.3515C43.7785 27.9567 44.371 25.382 44.6827 24.7284L43.7475 24.0301C41.6584 30.5726 37.4491 32.2736 34.5178 32.2736C30.6823 32.2736 26.9399 29.3068 26.9399 24.0731C26.9399 18.8395 30.4326 16.8323 34.2371 16.8323L34.2387 16.8359ZM36.2968 28.5261C40.7558 28.5261 42.6589 23.3354 42.6589 23.3354C42.6589 23.3354 39.0731 20.0642 35.9231 20.0642C34.5815 20.0642 31.6192 20.6747 31.6192 24.1644C31.6192 27.0436 33.927 28.5261 36.2968 28.5261Z" fill="black"/>
<path d="M58.8104 7.32849V10.5568L57.7185 14.1772H58.5917C60.2761 8.9865 62.9887 6.80566 65.92 6.80566C68.5395 6.80566 70.9094 8.63735 71.9376 13.871H72.9348C74.2438 9.46636 76.958 6.80566 80.1374 6.80566C84.8771 6.80566 88.1201 10.6445 88.1201 18.7125V31.8423H83.5045V19.76C83.5045 14.8307 82.3196 11.9086 78.8578 11.9086C75.7715 11.9086 73.5257 15.3106 73.5257 19.8029V31.8423H68.91V19.717C68.91 14.7877 67.6631 11.8227 64.2013 11.8227C60.7396 11.8227 58.8072 15.8352 58.8072 18.8021V31.8441H54.1295V7.32849H58.8072H58.8104Z" fill="black"/>
<path d="M94.3271 4.66785L91.1151 4.71082V0H99.0358V26.8683H103.245V31.8406H98.2556C95.8858 31.8406 94.3271 29.6168 94.3271 26.3455V4.66785Z" fill="#0D65FD"/>
<path d="M111.946 16.8359C116.031 16.8359 119.117 19.4088 121.238 21.3712C121.269 20.587 121.238 18.8412 121.238 18.1429C121.238 13.7813 119.71 11.9926 115.687 11.9926H106.581L106.55 7.28174H117.338C123.263 7.28174 125.914 10.7285 125.914 18.7535V26.997H129V31.8815H123.511V31.8385L122.919 31.8815C121.921 31.8815 121.484 30.3542 121.484 29.3515C121.484 27.9567 122.076 25.382 122.388 24.7284L121.453 24.0301C119.364 30.5726 115.155 32.2736 112.223 32.2736C108.388 32.2736 104.645 29.3068 104.645 24.0731C104.645 18.8395 108.138 16.8323 111.943 16.8323L111.946 16.8359ZM114.004 28.5261C118.463 28.5261 120.364 23.3354 120.364 23.3354C120.364 23.3354 116.779 20.0642 113.629 20.0642C112.289 20.0642 109.325 20.6747 109.325 24.1644C109.325 27.0436 111.633 28.5261 114.002 28.5261H114.004Z" fill="#0D65FD"/>
</svg>
